<?xml version="1.0" encoding="UTF-8" standalone="no" ?>
<!DOCTYPE svg PUBLIC "-//W3C//DTD SVG 1.1//EN" "http://www.w3.org/Graphics/SVG/1.1/DTD/svg11.dtd">
<svg xmlns="http://www.w3.org/2000/svg" xmlns:xlink="http://www.w3.org/1999/xlink" version="1.1" width="509.3817578125001" height="137.99" xml:space="preserve">
<desc>Created with Fabric.js 1.6.0-rc.1</desc>
<defs></defs>
  <g transform="translate(324.3 70.11) scale(1.79 1.79)">
   <text font-family="undefined" font-size="40" font-style="italic" font-weight="normal" style="stroke: none; stroke-width: 1; stroke-dasharray: none; stroke-linecap: butt; stroke-linejoin: miter; stroke-miterlimit: 10; fill: #ffffff; fill-rule: nonzero; opacity: 1;" ><tspan x="-98.31" y="8.98" style="stroke: none; stroke-width: 0; stroke-dasharray: none; stroke-linecap: butt; stroke-linejoin: miter; stroke-miterlimit: 4; fill: #ffffff; fill-rule: ; opacity: 1;">A</tspan><tspan x="-73.88" y="8.98" style="stroke: none; stroke-width: 0; stroke-dasharray: none; stroke-linecap: butt; stroke-linejoin: miter; stroke-miterlimit: 4; fill: #ffffff; fill-rule: ; opacity: 1;">C</tspan><tspan x="-47.2" y="8.98" style="stroke: none; stroke-width: 0; stroke-dasharray: none; stroke-linecap: butt; stroke-linejoin: miter; stroke-miterlimit: 4; fill: #ffffff; fill-rule: ; opacity: 1;">E</tspan><tspan x="-22.76" y="8.98" style="stroke: none; stroke-width: 0; stroke-dasharray: none; stroke-linecap: butt; stroke-linejoin: miter; stroke-miterlimit: 4; fill: #ffffff; fill-rule: ; opacity: 1;">S</tspan><tspan x="-2.76" y="8.98" style="stroke: none; stroke-width: 0; stroke-dasharray: none; stroke-linecap: butt; stroke-linejoin: miter; stroke-miterlimit: 4; fill: #ffffff; fill-rule: ; opacity: 1;">S</tspan><tspan x="17.24" y="8.98" style="stroke: none; stroke-width: 0; stroke-dasharray: none; stroke-linecap: butt; stroke-linejoin: miter; stroke-miterlimit: 4; fill: #ffffff; fill-rule: ; opacity: 1;"> </tspan><tspan x="27.24" y="8.98" style="stroke: none; stroke-width: 0; stroke-dasharray: none; stroke-linecap: butt; stroke-linejoin: miter; stroke-miterlimit: 4; fill: #ffffff; fill-rule: ; opacity: 1;">J</tspan><tspan x="44.99" y="8.98" style="stroke: none; stroke-width: 0; stroke-dasharray: none; stroke-linecap: butt; stroke-linejoin: miter; stroke-miterlimit: 4; fill: #ffffff; fill-rule: ; opacity: 1;">O</tspan><tspan x="73.88" y="8.98" style="stroke: none; stroke-width: 0; stroke-dasharray: none; stroke-linecap: butt; stroke-linejoin: miter; stroke-miterlimit: 4; fill: #ffffff; fill-rule: ; opacity: 1;">B</tspan></text>
 </g>
<g style="stroke: none; stroke-width: 1; stroke-dasharray: none; stroke-linecap: butt; stroke-linejoin: miter; stroke-miterlimit: 10; fill: none; fill-rule: nonzero; opacity: 1;" transform="translate(10 10) scale(0.23 0.23)" >
  <circle cx="256" cy="256" r="256" style="stroke: none; stroke-width: 1; stroke-dasharray: none; stroke-linecap: butt; stroke-linejoin: miter; stroke-miterlimit: 10; fill: #E6F3FF; fill-rule: nonzero; opacity: 1;" transform="  matrix(1 0 0 1 0 0) "/>
  <path d="M 510.328 285.243 l -183.23 -183.23 l -34.599 66.448 l -76.148 -3.098 l -36.202 60.84 L 256 452.322 l 53.962 53.962 C 416.135 483.5 497.857 394.886 510.328 285.243 z" style="stroke: none; stroke-width: 1; stroke-dasharray: none; stroke-linecap: butt; stroke-linejoin: miter; stroke-miterlimit: 10; fill: #CFDBE6; fill-rule: nonzero; opacity: 1;" transform=" matrix(1 0 0 1 0 0) " stroke-linecap="round" />
  <path d="M 256 113.245 c -63.609 0 -115.172 51.564 -115.172 115.172 S 256 452.32 256 452.32 s 115.172 -160.296 115.172 -223.903 S 319.609 113.245 256 113.245 z M 256 281.653 c -31.418 0 -56.889 -25.471 -56.889 -56.889 s 25.471 -56.889 56.889 -56.889 s 56.889 25.471 56.889 56.889 S 287.418 281.653 256 281.653 z" style="stroke: none; stroke-width: 1; stroke-dasharray: none; stroke-linecap: butt; stroke-linejoin: miter; stroke-miterlimit: 10; fill: #C1321F; fill-rule: nonzero; opacity: 1;" transform=" matrix(1 0 0 1 0 0) " stroke-linecap="round" />
  <path d="M 371.172 228.417 c 0 -63.609 -51.565 -115.172 -115.172 -115.172 c -0.193 0 -0.381 0.014 -0.574 0.014 v 54.632 c 0.191 -0.002 0.381 -0.014 0.574 -0.014 c 31.418 0 56.889 25.471 56.889 56.889 S 287.418 281.655 256 281.655 c -0.193 0 -0.383 -0.012 -0.574 -0.014 v 169.877 c 0.365 0.512 0.574 0.803 0.574 0.803 S 371.172 292.026 371.172 228.417 z" style="stroke: none; stroke-width: 1; stroke-dasharray: none; stroke-linecap: butt; stroke-linejoin: miter; stroke-miterlimit: 10; fill: #A82116; fill-rule: nonzero; opacity: 1;" transform=" matrix(1 0 0 1 0 0) " stroke-linecap="round" />
  <path d="M 257.148 228.569 c 0 -38.631 69.949 -126.557 69.949 -126.557 s 69.949 87.926 69.949 126.557 s -31.318 69.949 -69.949 69.949 S 257.148 267.202 257.148 228.569 z" style="stroke: none; stroke-width: 1; stroke-dasharray: none; stroke-linecap: butt; stroke-linejoin: miter; stroke-miterlimit: 10; fill: #F4A200; fill-rule: nonzero; opacity: 1;" transform=" matrix(1 0 0 1 0 0) " stroke-linecap="round" />
  <path d="M 397.047 228.569 c 0 -37.597 -66.241 -121.868 -69.791 -126.359 v 196.303 C 365.815 298.429 397.047 267.148 397.047 228.569 z" style="stroke: none; stroke-width: 1; stroke-dasharray: none; stroke-linecap: butt; stroke-linejoin: miter; stroke-miterlimit: 10; fill: #E08F00; fill-rule: nonzero; opacity: 1;" transform=" matrix(1 0 0 1 0 0) " stroke-linecap="round" />
  <path d="M 327.278 224.949 c 0 0 1.703 -20.961 -13.371 -46.868 c 0 0 -34.602 40.295 -30.961 72.668 c 2.725 24.229 19.766 44.149 44.149 44.149 s 42.677 -19.811 44.149 -44.149 c 1.66 -27.426 -9.292 -63.247 -40.381 -85.385 C 330.866 165.362 343.004 212.937 327.278 224.949 z" style="stroke: none; stroke-width: 1; stroke-dasharray: none; stroke-linecap: butt; stroke-linejoin: miter; stroke-miterlimit: 10; fill: #FFD15D; fill-rule: nonzero; opacity: 1;" transform=" matrix(1 0 0 1 0 0) " stroke-linecap="round" />
  <path d="M 330.866 165.362 c 0 0 12.138 47.575 -3.587 59.587 c 0 0 0.141 -1.774 -0.022 -4.911 v 74.855 c 24.304 -0.086 42.522 -19.859 43.992 -44.146 C 372.907 223.323 361.955 187.501 330.866 165.362 z" style="stroke: none; stroke-width: 1; stroke-dasharray: none; stroke-linecap: butt; stroke-linejoin: miter; stroke-miterlimit: 10; fill: #F9B54C; fill-rule: nonzero; opacity: 1;" transform=" matrix(1 0 0 1 0 0) " stroke-linecap="round" />
</g>
</svg>